<svg id="Component_239_10" data-name="Component 239 – 10" xmlns="http://www.w3.org/2000/svg" width="18.559" height="18.587" viewBox="0 0 18.559 18.587">
  <path id="Path_12762" data-name="Path 12762" d="M311.559,632.176a2.366,2.366,0,0,1-.232,1.013,3.833,3.833,0,0,1-.632.948,4.19,4.19,0,0,1-1.524,1.1,4.666,4.666,0,0,1-1.812.353,7.745,7.745,0,0,1-3.03-.678,16.323,16.323,0,0,1-3.2-1.84,26.714,26.714,0,0,1-3.048-2.6,26.392,26.392,0,0,1-2.593-3.039,16.57,16.57,0,0,1-1.822-3.169,7.827,7.827,0,0,1-.669-3.039,4.808,4.808,0,0,1,.335-1.794,4.278,4.278,0,0,1,1.069-1.552,2.723,2.723,0,0,1,1.933-.874,1.746,1.746,0,0,1,.753.167,1.515,1.515,0,0,1,.623.52l2.156,3.039a3.179,3.179,0,0,1,.372.651,1.468,1.468,0,0,1,.13.567,1.262,1.262,0,0,1-.2.66,3.16,3.16,0,0,1-.52.66l-.706.734a.5.5,0,0,0-.149.372.845.845,0,0,0,.028.214c.028.074.056.13.074.186a7.708,7.708,0,0,0,.864,1.19c.418.483.864.976,1.348,1.468.5.493.985.948,1.478,1.366a7.131,7.131,0,0,0,1.2.855c.046.019.1.046.167.074a.642.642,0,0,0,.232.037.511.511,0,0,0,.381-.158l.706-.7a2.852,2.852,0,0,1,.669-.52,1.238,1.238,0,0,1,.66-.2,1.483,1.483,0,0,1,.567.121,3.6,3.6,0,0,1,.651.362l3.076,2.184a1.411,1.411,0,0,1,.511.595A1.907,1.907,0,0,1,311.559,632.176Z" transform="translate(-293 -617)" fill="#02c39a"/>
</svg>
