<svg id="Component_238_3" data-name="Component 238 – 3" xmlns="http://www.w3.org/2000/svg" width="20.75" height="20.75" viewBox="0 0 20.75 20.75">
  <path id="Path_12763" data-name="Path 12763" d="M349,621.75a2.75,2.75,0,1,0-2.75-2.75A2.75,2.75,0,0,0,349,621.75Z" transform="translate(-331 -616.25)" fill="#1f6fe3"/>
  <path id="Path_12764" data-name="Path 12764" d="M348.04,623.15a4.226,4.226,0,0,1-3.19-3.19,4.362,4.362,0,0,1-.03-1.76.988.988,0,0,0-.97-1.2H336a5,5,0,0,0-5,5v6.95a5,5,0,0,0,5,5h1.5a1.112,1.112,0,0,1,.8.4l1.5,1.99a1.421,1.421,0,0,0,2.4,0l1.5-1.99a1,1,0,0,1,.8-.4h1.51a4.985,4.985,0,0,0,4.99-4.99v-4.81a1,1,0,0,0-1.2-.97A4.548,4.548,0,0,1,348.04,623.15ZM337,627a1,1,0,1,1,1-1A1,1,0,0,1,337,627Zm4,0a1,1,0,1,1,1-1A1,1,0,0,1,341,627Zm4,0a1,1,0,1,1,1-1A1,1,0,0,1,345,627Z" transform="translate(-331 -616.25)" fill="#1f6fe3"/>
</svg>
